<?xml version="1.0" encoding="UTF-8"?> <svg xmlns="http://www.w3.org/2000/svg" viewBox="0 0 3435.94 417.06"><g id="Layer_2" data-name="Layer 2"><g id="Layer_1-2" data-name="Layer 1"><path d="M1922.11.25h58.81V125.81c2.39.07,4.32.17,6.24.17,41.33,0,82.65-.23,124,.1,22.71.18,44.61,4.49,64.6,16.06,23.11,13.39,39,32.81,48.13,57.82,6.84,18.76,10,38.2,10.55,58.12.16,6.14.79,12.29.59,18.42-.82,25.36-3.55,50.43-13.9,74-12.66,28.83-34,48.4-63.6,59a134.62,134.62,0,0,1-46,7.5c-29,0-58,.14-87-.06-16.42-.12-32.39-2.93-47.5-9.78-19-8.63-32.74-22.6-41.53-41.36-7.42-15.82-11.19-32.67-12.3-50.07-.6-9.45-1-18.94-1-28.4q-.11-140.23-.05-280.46Zm59,182.4v6.28q0,54,0,107.94a91,91,0,0,0,5.35,30.79c4.9,13.71,14.17,23,28,27.7,9.89,3.36,20.08,4.52,30.41,4.59,19.15.12,38.31,0,57.46,0a109.43,109.43,0,0,0,23.26-2.28c16.92-3.67,30.5-12.06,38.86-27.73a85.47,85.47,0,0,0,7.77-22.55c3.34-15.57,3.61-31.36,3-47.16-.52-13.16-2.43-26.12-7-38.58-6.54-17.95-18.76-29.79-37.22-35.22a104.81,104.81,0,0,0-29.54-3.79q-57.21-.1-114.42,0Z"></path><path d="M2575.4,244.65c-.46-11.16,1.13-21.68-1.09-32-3.64-17-14.21-26.65-31.36-28.88a121.91,121.91,0,0,0-15.39-1q-82-.1-163.94,0h-6.22V126.22c1.81-.09,3.43-.22,5.06-.22,57.31,0,114.62-.18,171.93.09,17.52.08,34.8,2.6,50.93,10.19,24.64,11.59,39.37,31,44.87,57.5a130,130,0,0,1,2.84,26.7c-.05,48.33.09,96.65-.14,145a103.86,103.86,0,0,1-2.74,21.67c-3,13.5-11.68,22-24.91,26a91.38,91.38,0,0,1-26.54,3.84q-74,.13-147.94,0a127.61,127.61,0,0,1-40.2-6.38c-24-8-38.94-24.6-46.4-48.38a114.26,114.26,0,0,1-4.67-39.91c.58-12,2.4-23.8,7.36-34.91,8-17.82,21.81-29,39.84-35.44a126,126,0,0,1,42.55-7.21c46.48-.12,93,0,139.44,0Zm0,46.33h-6.75q-63.95,0-127.89,0a115.78,115.78,0,0,0-14.89,1c-10.71,1.44-20,5.55-24.95,15.89-4.54,9.52-4.89,19.53-1.8,29.63,3.16,10.35,9.85,17.38,20.36,20a78.23,78.23,0,0,0,18.21,2.34c40,.2,79.93.11,119.9.09a39.4,39.4,0,0,0,7-.45c6.33-1.15,10.19-5.54,10.78-12,.11-1.16.06-2.33.06-3.5q0-23.73,0-47.47Z"></path><path d="M236.4,244.65c-.51-11.69,1.08-22.66-1.66-33.51-3.86-15.37-13.85-24.8-29.54-27.18a106.9,106.9,0,0,0-15.88-1.25q-82.48-.14-165-.06H18.08v-56.4c1.8-.1,3.42-.25,5-.25,57.49,0,115-.19,172.47.09,17.36.08,34.48,2.64,50.46,10.13,23.53,11,38.26,29.29,44.28,54.54a118.55,118.55,0,0,1,3.37,27.65q-.09,73.5,0,147a87.23,87.23,0,0,1-3,23.16c-3.55,12.88-12.09,20.61-24.61,24.52a88.94,88.94,0,0,1-26.54,3.85q-74,.13-148,0A129.84,129.84,0,0,1,52.77,411c-24.92-7.84-40.6-24.77-47.94-49.35A117.11,117.11,0,0,1,4,298.05c6-23.28,21.24-38.23,43.67-46.2a126.87,126.87,0,0,1,42.57-7.16q69.74-.15,139.47,0Zm-.05,46.64c-1.92-.13-3.22-.29-4.51-.29-44.82,0-89.64-.09-134.46.06a57.58,57.58,0,0,0-21,3.59,26.59,26.59,0,0,0-15.94,16.19,41,41,0,0,0-1.14,24.43c3,12.1,10.27,20,22.58,22.66a83.12,83.12,0,0,0,16.76,2c40,.16,80,.09,120,.08,1.33,0,2.67,0,4-.15,8.82-.79,13.19-5.24,13.76-14,.07-1.16,0-2.33,0-3.5v-51Z"></path><path d="M1143.17,299.65c.46,10.55-1,20.52,1.06,30.4,3.33,16.3,13.34,26,29.78,28.68a94.88,94.88,0,0,0,14.87,1.2q84.73.13,169.46.06h5.87c1.18,3.68,1.49,50,.4,56.75-1.53.08-3.14.23-4.75.23-59.49,0-119,.12-178.46-.05-16.07-.05-31.76-2.72-46.57-9.45-24.22-11-39.24-29.54-45.38-55.34a125.21,125.21,0,0,1-3.26-29.66c.12-35.5-.08-71,.1-106.5a100.85,100.85,0,0,1,8.76-41.16c9.44-21,25.74-34.34,47.07-41.95a103.91,103.91,0,0,1,34.19-6.18c36.47-.3,72.94-.74,109.41-.56a137,137,0,0,1,42.19,6.44c22.27,7.27,37.61,21.85,45.35,43.72a112.84,112.84,0,0,1,1.42,72.54c-7.09,22.86-22.63,37.55-45.47,44.43a132.73,132.73,0,0,1-37.83,5.73l-143.39.67C1146.67,299.66,1145.35,299.65,1143.17,299.65Zm.37-46.87c1.76.08,3.22.2,4.69.2,45.33,0,90.65.08,136-.09a68.9,68.9,0,0,0,15.72-2.27,26.79,26.79,0,0,0,17.41-13.21c4.83-8.46,5.69-17.64,3.79-27-2.71-13.43-10.41-22.59-24.09-25.59a91.79,91.79,0,0,0-18.25-2.06c-17-.27-34-.14-51-.08-15.5.05-31,.06-46.48.38a42.2,42.2,0,0,0-19.66,4.91c-11.28,6.22-17.09,16.37-18,28.8C1142.9,228.51,1143.54,240.37,1143.54,252.78Z"></path><path d="M3129.28.25h57.82c.36,8.22.11,16.47.15,24.71s0,16.66,0,25v76h6.29c33.49,0,67-.36,100.47.11,25.19.36,50.09,3.35,73.59,13.35,34.66,14.76,55.84,40.86,64.55,77.31a151.4,151.4,0,0,1,3.78,35.59q-.15,79,0,158v6.28h-58.83c-.05-1.73-.15-3.65-.15-5.57,0-52.66.08-105.31-.07-158,0-13.28-2.55-26.12-9.53-37.75-8.5-14.16-21.19-22.66-36.74-27.35-13.17-4-26.73-5.21-40.38-5.27-32.66-.14-65.32,0-98,0-1.47,0-2.93.16-4.9.27V416.68h-58Z"></path><path d="M1550.5,416.72h-58.06c-.1-1.66-.25-3.11-.25-4.56q0-123.48,0-247a54,54,0,0,1,4.68-22.77c3-6.48,8-10.49,14.41-13a56.62,56.62,0,0,1,20.54-3.38c42.16-.15,84.31-.38,126.46.06,20.62.21,41.12,2.53,60.94,8.83,39.18,12.47,64.77,38,75.28,78.15a145.16,145.16,0,0,1,4.62,37q0,80.23,0,160.48v6.14h-59v-5.88c0-52.49.11-105-.07-157.48,0-13.23-2.28-26.15-9-37.93-6.49-11.45-16-19.42-28.07-24.44a94,94,0,0,0-31.94-7.23c-14.79-.67-29.59-.93-44.39-1-21.66-.17-43.32,0-65,0-9.39,0-11.24,1.88-11.24,11.48q0,108,0,216Z"></path><path d="M664.29,126.2h57c.11,1.77.29,3.38.29,5,0,59.49.38,119-.15,178.47-.24,27.52-9.3,52.31-28.69,72.47-12,12.44-26.59,20.91-42.84,26.65S617,416.85,600,417q-31.49.19-63,0c-21.7-.13-42.71-3.92-62.34-13.48-30.22-14.71-49-38.55-56.09-71.49a144.31,144.31,0,0,1-2.95-30.69q.13-84.24,0-168.48V127c3.71-1.18,52.06-1.48,59-.36v5.73q0,83,0,166c0,17.23,5.44,32.33,18.31,44.29,8.66,8,19,12.67,30.46,15.1a113.72,113.72,0,0,0,23.78,2.3c15.66,0,31.32.1,47,0,12.55-.1,24.93-1.59,36.43-7,19.25-9.08,30.44-24.19,33-45.43a113.48,113.48,0,0,0,.68-13.42q.07-80.74,0-161.48Z"></path><path d="M3018.66,182.65H2876.42a112.85,112.85,0,0,0-24.26,2.3c-16.29,3.59-29.73,11.41-38.13,26.41-5.35,9.56-8.24,19.93-10,30.68a194.66,194.66,0,0,0-1.67,44.27c1,14.11,3.26,28,9.37,41,7.38,15.74,19.89,25,36.33,29.41a101.9,101.9,0,0,0,26.64,3.21H3018c1.13,3.84,1.36,50.81.31,56.77-1.54.08-3.16.21-4.78.22-50.14,0-100.28.21-150.42-.09-23.34-.14-45.46-5.65-65.48-18.16-26-16.24-41-40.2-48.42-69.37-4.18-16.34-6-32.94-6.4-49.81q-.37-14.48.59-28.83c1.45-22,5.66-43.47,15.64-63.45,14.65-29.34,38.4-47.44,69.63-56.15a116.68,116.68,0,0,1,30-4.49c9.14-.12,18.28-.6,27.42-.61q63.21-.1,126.44,0h6.12Z"></path><path d="M914.27,182.46V416.05c-3.89,1.13-52.21,1.4-59,.34V182.78H816.18c-1.08-4.09-1.33-50.29-.34-56.79h39.43c0-2.1,0-3.86,0-5.63.11-13-.27-26,.45-39,1-17.51,3.74-34.74,12.78-50.26,8-13.65,19.87-22.14,35-26.33A108.6,108.6,0,0,1,932,.63C951.44.49,970.91.21,990.39,0c.8,0,1.62.11,2.35.16,1,3.9,1.22,47.78.19,53.82h-4.76c-12,0-24-.09-36,.06a67.54,67.54,0,0,0-11.88,1.15c-14.94,2.89-22.74,11.11-24.68,26.68-1,8.06-1.07,16.24-1.33,24.38-.2,6.31,0,12.63,0,19.69,6.84.1,13.44,0,20,0s13.33,0,20,0H993.6c1.17,3.71,1.57,47.93.54,56.47Z"></path></g></g></svg> 